<?xml version="1.0" encoding="utf-8"?>
<!-- Generator: Adobe Illustrator 21.0.2, SVG Export Plug-In . SVG Version: 6.00 Build 0)  -->
<svg version="1.1" id="Layer_1" xmlns="http://www.w3.org/2000/svg" xmlns:xlink="http://www.w3.org/1999/xlink" x="0px" y="0px"
	 viewBox="0 0 100 100" style="enable-background:new 0 0 100 100;" xml:space="preserve">
<style type="text/css">
	.st0{fill:#010101;}
</style>
<path class="st0" d="M64.6,24.7c3.8,0,7-3.1,7-7s-3.1-7-7-7c-3.8,0-7,3.1-7,7S60.7,24.7,64.6,24.7z"/>
<path class="st0" d="M67,62.6c5.4,0.7,8.4,1.1,10.4,1.1c0.7,0.1,1.4,0,2-0.1c0.5-0.1,1-0.4,1.5-0.7c0,0,0,0,0,0l0,0
	c2.4-1.5,3.5-4.7,2.7-7.9l-6.7-25.3c-1-3.8-4.5-6.2-7.9-5.4c-1.5,0.4-2.8,1.5-3.6,2.8L54,31.3l-16.2-0.9l1.8-3.8l-0.6-0.3l-1.9,4
	l-0.5,0c-1-0.1-1.8,1.1-1.9,2.6c0,0,0,0.1,0,0.1l-20.4-9l-0.9,2.1l45,19.8l0.9-2.1L41.5,36l12.9,0.7c0.1,0,0.2,0,0.3,0l0.1,0
	c0.3,0,0.6-0.1,0.9-0.3l9.2-3.3l5.4,20.3l-9.7-0.7l-10.8-0.7c-1.7,0-2.7,0.8-3.3,2.3l-0.3,1.9V85c0,2.2,1.8,4,4,4s4-1.8,4-4l0-24
	L67,62.6z"/>
<polygon class="st0" points="34.7,37.5 49.2,43.9 49.7,42.6 20.2,29.7 19.6,30.9 31.5,36.2 30.1,36.2 30.1,84.5 8.4,84.5 8.4,88.3 
	43.7,88.3 43.7,84.5 34.7,84.5 "/>
<path class="st0" d="M90.1,64.1h-0.7v-12l1-9.4c0.1-0.8-0.7-1.5-1.7-1.6c-1-0.1-1.9,0.4-2,1.2l-1.8,16.4c-0.1,0.8,0.7,1.5,1.7,1.6
	c0.5,0,0.9,0,1.2-0.2v3.9H64.4c-0.8,0-1.5,0.7-1.5,1.7c0,0.9,0.7,1.7,1.5,1.7h11.1v16.3l-7.9,0.8l0.1,0.9c0,0,0,0,0,0
	c-1,0-1.9,0.8-1.9,1.9c0,1,0.8,1.9,1.9,1.9c1,0,1.9-0.8,1.9-1.9c0-0.4-0.1-0.8-0.3-1.1l6.3-0.6v3.3h2.5v-3.4l6.8,0.7
	c-0.2,0.3-0.3,0.7-0.3,1.1c0,1,0.8,1.9,1.9,1.9c1,0,1.9-0.8,1.9-1.9c0-1-0.8-1.9-1.9-1.9c0,0-0.1,0-0.1,0l0.1-0.9l-8.3-0.8V67.4h12
	c0.8,0,1.5-0.7,1.5-1.7C91.6,64.9,90.9,64.1,90.1,64.1z"/>
</svg>
