<?xml version="1.0" encoding="utf-8"?>
<!-- Generator: Adobe Illustrator 21.0.2, SVG Export Plug-In . SVG Version: 6.00 Build 0)  -->
<svg version="1.1" id="Layer_1" xmlns="http://www.w3.org/2000/svg" xmlns:xlink="http://www.w3.org/1999/xlink" x="0px" y="0px"
	 viewBox="0 0 100 100.2" style="enable-background:new 0 0 100 100.2;" xml:space="preserve">
<path d="M22,75.1h-4.7v-7.6c0-1.3,1-2.3,2.3-2.3h28h4.7h28c1.3,0,2.3,1,2.3,2.3v7.6H78v-5.2H52.3v5.2h-4.7v-5.2H22V75.1z M50,60.1
	h24c-0.1-10,0.3-15.3-6.2-17.6c-5.9-2.2-9.4-4.5-9.4-4.5l-4.5,14.3l-0.6,1.9l-2-5.7c4.7-6.5-0.4-6.8-1.2-6.8l0,0l0,0l0,0l0,0l0,0
	l0,0c-0.9,0-5.9,0.3-1.2,6.8l-2,5.7l-0.6-1.9L41.6,38c0,0-3.5,2.3-9.4,4.5c-6.5,2.3-6.1,7.7-6.2,17.6H50L50,60.1z M53.7,24.9
	c2-2,2-5.3,0-7.2c-2-2-5.3-2-7.2,0c-2,2-2,5.3,0,7.2C48.4,26.9,51.7,26.9,53.7,24.9z M32.7,22.9v-3.1c0-0.6,0.5-1.1,1.1-1.1h2.6
	c0.3-1.8,1-3.5,2.1-5l-1.8-1.8c-0.4-0.4-0.4-1.2,0-1.6l2.2-2.2c0.4-0.4,1.2-0.4,1.6,0l1.8,1.8c1.5-1,3.3-1.7,5-2.1V5.2
	c0-0.6,0.5-1.1,1.1-1.1h3.1c0.6,0,1.1,0.5,1.1,1.1v2.6c1.8,0.3,3.5,1,5,2.1l1.8-1.8c0.4-0.4,1.2-0.4,1.6,0l2.2,2.2
	c0.4,0.4,0.4,1.2,0,1.6l-1.8,1.8c1,1.5,1.7,3.3,2.1,5h2.6c0.6,0,1.1,0.5,1.1,1.1v3.1c0,0.6-0.5,1.1-1.1,1.1h-2.6
	c-0.3,1.8-1,3.5-2.1,5l1.8,1.8c0.4,0.4,0.4,1.2,0,1.6L61,34.6c-0.4,0.4-1.2,0.4-1.6,0l-1.8-1.8c-1.5,1-3.3,1.7-5,2.1v2.6
	c0,0.6-0.5,1.1-1.1,1.1h-3.1c-0.6,0-1.1-0.5-1.1-1.1v-2.6c-1.8-0.3-3.5-1-5-2.1l-1.8,1.8c-0.4,0.4-1.2,0.4-1.6,0l-2.2-2.2
	c-0.4-0.4-0.4-1.2,0-1.6l1.8-1.8c-1-1.5-1.7-3.3-2.1-5h-2.6C33.2,24,32.7,23.5,32.7,22.9z M44.3,27c3.2,3.1,8.3,3.1,11.4,0
	c3.1-3.2,3.1-8.3,0-11.4c-3.2-3.1-8.3-3.1-11.4,0C41.2,18.8,41.2,23.9,44.3,27z M59.8,79.2h-7.4l0,0h-4.7l0,0h-7.4c-1.6,0-3,1.3-3,3
	v10.9c0,1.6,1.3,3,3,3h19.5c1.6,0,3-1.3,3-3V82.2C62.8,80.5,61.4,79.2,59.8,79.2z M90.1,79.2h-7.4l0,0H78l0,0h-7.4c-1.6,0-3,1.3-3,3
	v10.9c0,1.6,1.3,3,3,3h19.5c1.6,0,3-1.3,3-3V82.2C93,80.5,91.7,79.2,90.1,79.2z M29.5,79.2H22l0,0h-4.7l0,0H9.9c-1.6,0-3,1.3-3,3
	v10.9c0,1.6,1.3,3,3,3h19.5c1.6,0,3-1.3,3-3V82.2C32.5,80.5,31.1,79.2,29.5,79.2z"/>
</svg>
