<?xml version="1.0" encoding="utf-8"?>
<!-- Generator: Adobe Illustrator 21.0.2, SVG Export Plug-In . SVG Version: 6.00 Build 0)  -->
<svg version="1.1" id="Layer_1" xmlns="http://www.w3.org/2000/svg" xmlns:xlink="http://www.w3.org/1999/xlink" x="0px" y="0px"
	 viewBox="0 0 300.1 300" style="enable-background:new 0 0 300.1 300;" xml:space="preserve">
<g>
	<path d="M67.2,250.4c0,4.5,3.6,8.1,8.1,8.1c4.5,0,8.1-3.6,8.1-8.1c0-3.5-2.2-6.5-5.3-7.6v-4.6l-0.4-0.7
		c-0.4-0.8-7.2-10.8-30.8-11.9l1.2-12.2h23.2c4.1,0,7.5-3.4,7.5-7.5c0-4.1-3.4-7.5-7.5-7.5l-51.9,0l-3.1-51.6
		c-0.2-4.1-3.8-7.3-7.9-7c-4.1,0.2-7.3,3.8-7,7.9v0l3.5,58.7c0.2,4,3.5,7.1,7.5,7.1h23.5l1.2,12.2c-23.7,1.2-30.4,11.1-30.8,11.9
		l-0.4,0.7v4.5c-3.3,1-5.6,4.1-5.6,7.7c0,4.5,3.6,8.1,8.1,8.1s8.1-3.6,8.1-8.1c0-3.2-1.9-6-4.6-7.3l0-3.1c1.6-1.8,7.9-7.6,25.8-8.5
		l1.1,11.2c-3.1,1.1-5.4,4.1-5.4,7.6c0,4.5,3.6,8.1,8.1,8.1s8.1-3.6,8.1-8.1c0-3.1-1.8-5.8-4.4-7.2l1.2-11.7
		c10.5,0.5,17,2.7,20.9,4.8c2.2,1.2,3.6,2.3,4.4,3.1c0.2,0.2,0.4,0.4,0.5,0.5v2.9C69.2,244.2,67.2,247.1,67.2,250.4z"/>
	<ellipse transform="matrix(0.2268 -0.9739 0.9739 0.2268 -16.2478 118.4226)" cx="66.5" cy="69.4" rx="22.5" ry="22.5"/>
	<path d="M90,176.6c-0.5,0-1.1,0-1.6-0.1c-8.2-1.3-15.5-3.9-21.7-7.9h-4c0-0.4,0-0.8,0-1.2c0-0.6-0.1-1.1-0.1-1.7
		c-5.3-4.2-9.7-9.4-13-15.6c-4.8-9.2-7.3-20-7.4-32c0-4.5,0.4-7.5,0.5-8.1c0.7-4.9,4.9-8.6,9.9-8.6c0.5,0,0.9,0,1.4,0.1
		c2.6,0.4,5,1.7,6.6,3.9c1.6,2.1,2.3,4.8,1.9,7.4l0,0.2c0,0.2-0.1,0.6-0.1,1c-0.1,0.9-0.1,2.3-0.1,4.1c0,3.4,0.3,10.1,2.5,16.8
		c0.2,0.5,0.4,1,0.5,1.5c0.9-4,2.1-7.9,3.5-11.7c3.7-10.3,1.2-22.9-8-29c-9.1-6.1-23.9,0.1-29.5,15.2c-7,19-9.9,39.2-8.6,59.4
		c0.7,10.4,6.1,18.2,12.6,21.7c1.8,1.1,3.9,1.8,6.2,1.8c0.6,0,1.3,0.1,1.9,0H83l7.4,47.2c1,6.2,6.3,10.6,12.3,10.6
		c0.6,0,1.3,0,1.9-0.1c6.8-1.1,11.5-7.5,10.4-14.3l-9-57.8c-0.6-4-3.2-7.4-6.6-9.2C98,173.9,94.3,176.6,90,176.6z"/>
	<path d="M91.3,158.7c-7.3-1.2-12.6-3.6-16.7-6.5c-6-4.4-9.6-10.4-11.7-16.8c-2.1-6.3-2.6-12.9-2.6-17.4c0-1.8,0.1-3.3,0.2-4.3
		c0-0.5,0.1-0.9,0.1-1.1c0-0.1,0-0.2,0-0.2l0,0c0.6-4.4-2.5-8.4-6.8-9c-4.4-0.6-8.4,2.5-9,6.8l0,0c0,0.3-0.4,3.2-0.4,7.8
		c0,7.5,1,19.5,7.1,31.1c3.1,5.8,7.5,11.4,13.7,16c6.2,4.6,14.1,7.9,23.6,9.4c0.4,0.1,0.8,0.1,1.3,0.1c3.9,0,7.3-2.8,7.9-6.7
		C98.6,163.5,95.7,159.4,91.3,158.7z"/>
</g>
<g>
	<path d="M283.6,233.9c2.2,1.2,3.6,2.3,4.4,3.1c0.2,0.2,0.4,0.4,0.5,0.5v3.1c-2.7,1.3-4.6,4.1-4.6,7.3c0,4.5,3.6,8.1,8.1,8.1
		s8.1-3.6,8.1-8.1c0-3.6-2.4-6.7-5.6-7.7v-4.5l-0.4-0.7c-0.4-0.8-7.2-10.8-30.8-11.9l1.2-12.2l23.5,0c4,0,7.3-3.1,7.5-7.1l3.5-58.7
		c0.2-4.1-2.9-7.7-7-7.9c-4.1-0.2-7.7,2.9-7.9,7l-3.1,51.6l-51.9,0c-4.1,0-7.5,3.4-7.5,7.5c0,4.1,3.4,7.5,7.5,7.5l23.2,0l1.2,12.2
		c-23.7,1.2-30.4,11.1-30.8,11.9l-0.4,0.7v4.6c-3.1,1.1-5.3,4.1-5.3,7.6c0,4.5,3.6,8.1,8.1,8.1c4.5,0,8.1-3.6,8.1-8.1
		c0-3.3-2-6.2-4.9-7.4v-2.9c1.6-1.8,7.9-7.6,25.8-8.5l1.2,11.6c-2.6,1.4-4.4,4.1-4.4,7.2c0,4.5,3.6,8.1,8.1,8.1
		c4.5,0,8.1-3.6,8.1-8.1c0-3.5-2.2-6.5-5.4-7.6l1.1-11.2C273.1,229.6,279.7,231.8,283.6,233.9z"/>
	<ellipse transform="matrix(1 -1.499998e-03 1.499998e-03 1 -9.937187e-02 0.3652)" cx="243.4" cy="66.4" rx="22.5" ry="22.5"/>
	<path d="M203.8,238.4l7.4-47.3h40.1c0.6,0,1.2,0,1.8,0c0.2,0,0.4,0,0.6-0.1c7.9-0.9,16.3-7.7,19.6-18.7c5.9-19.3,7.6-39.7,5.1-59.8
		c-2-16-15-25.4-25.3-21.5c-1.6,0.6-3,1.4-4.3,2.3c-0.3,0.2-0.6,0.4-0.8,0.6c-5.4,4.1-8.6,10.7-9.3,17.6c-0.3,0.4-0.6,0.9-0.9,1.3
		c-2.4,3.4-5.2,6.6-8.3,8.8c-3.1,2.2-6.2,3.3-9.8,3.4c-3.6,0-8.1-1.2-14.1-5.1l3.8-3.8l-2.8-2.8l-5.2,5.2c-2.7-0.1-5.3,1.2-6.9,3.6
		c-1,1.4-1.4,3.1-1.3,4.7l-3.5,3.5l2.8,2.8l2.1-2.1c0.6,0.8,1.3,1.6,2.2,2.1c7.9,5.3,15.7,7.8,23,7.8c0,0,0.1,0,0.1,0
		c0.7,0,1.3,0,2-0.1c2-0.8,3.9-1.7,5.8-2.8c4.5-2.8,8.4-6.8,11.8-11.8c6.2-9.3,8.3-19.6,8.3-19.7c0.9-4.8,5-8.3,9.8-8.3
		c0.6,0,1.2,0.1,1.8,0.2c2.6,0.5,4.9,1.9,6.4,4.1c1.5,2.2,2.1,4.8,1.6,7.5c-0.4,1.9-1.8,8.5-5.4,16.5c-5.6,12.2-13.3,21.6-23,27.9
		c-0.8,0.5-1.7,1.1-2.6,1.6c-0.4,1.6-0.8,3.1-1.3,4.6c-0.5,1.8-0.8,3.6-1,5.4h-23.4l-3-3c-1.8,0-3.6-0.1-5.5-0.3l3.3,3.3h-4.9
		c-6.1,0-11.4,4.5-12.4,10.6l-9,57.8c-1.1,6.8,3.6,13.2,10.4,14.3c0.6,0.1,1.3,0.1,1.9,0.1C197.5,249,202.8,244.6,203.8,238.4z"/>
	<path d="M170.9,126.6l-2.6,2.6l18.9,18.9c0.5-1.2,1.2-2.2,2.1-3.1L170.9,126.6z"/>
	<rect x="171" y="119.4" transform="matrix(0.7072 -0.7071 0.7071 0.7072 -37.5812 158.1544)" width="2.3" height="10"/>
	<path d="M208.5,161.1c0,0,0.1,0,0.1,0c11.6,0,21.4-3.3,29.1-8.3c11.6-7.5,18.3-18.3,22.3-27.1c4-8.8,5.2-15.6,5.3-16.1
		c0.8-4.3-2.1-8.5-6.4-9.3c-4.4-0.8-8.5,2.1-9.3,6.4v0l0,0c-0.1,0.7-2.3,11.1-8.6,20.5c-3.1,4.7-7.2,9.2-12.4,12.4
		c-5.2,3.2-11.5,5.4-20,5.4c-3.2,0-6.7-0.3-10.5-1c-4.3-0.8-8.5,2-9.4,6.4c-0.8,4.3,2,8.5,6.4,9.4
		C199.7,160.7,204.2,161.1,208.5,161.1z"/>
	<polygon points="191.4,134 188.5,131.2 185.4,136.8 185.7,137.1 	"/>
</g>
</svg>
