<?xml version="1.0" encoding="utf-8"?>
<!-- Generator: Adobe Illustrator 21.0.2, SVG Export Plug-In . SVG Version: 6.00 Build 0)  -->
<svg version="1.1" id="Layer_1" xmlns="http://www.w3.org/2000/svg" xmlns:xlink="http://www.w3.org/1999/xlink" x="0px" y="0px"
	 viewBox="0 0 100 100" style="enable-background:new 0 0 100 100;" xml:space="preserve">
<path d="M85.6,87.6l0.2-0.7L79.3,85c0-0.7-0.4-1.4-1-1.8V70.5h0.1c2.7-0.6,4.7-2.4,4.3-3.9c-0.1-0.3-0.2-0.6-0.5-0.9
	c3.6-2.7,4.1-6,4.1-6l-2.9,0.5c1.5-2.9,3.1-7.8,1.8-14.3c-2.1-11-9.3-13.9-9.3-13.9l5,28.6l-15.1,2.6c0,0,2.9,3.7,7,4.8
	c0,0.2,0,0.5,0,0.7c0.2,1,1.3,1.6,2.7,1.9v12.6c-0.6,0.4-0.9,1.1-1,1.8l-6.3,1.9l0.2,0.7c-0.5,0.2-0.9,0.7-0.9,1.4
	c0,0.8,0.7,1.5,1.5,1.5s1.5-0.7,1.5-1.5c0-0.3-0.1-0.5-0.2-0.7l5-1.5c0.2,0.2,0.4,0.3,0.7,0.4v0.7c-0.3,0.3-0.5,0.7-0.5,1.1
	c0,0.8,0.7,1.5,1.5,1.5s1.5-0.7,1.5-1.5c0-0.5-0.2-0.9-0.5-1.1v-0.7c0.3-0.1,0.5-0.3,0.7-0.5l5.3,1.6c-0.1,0.2-0.2,0.4-0.2,0.7
	c0,0.8,0.7,1.5,1.5,1.5s1.5-0.7,1.5-1.5C86.6,88.4,86.2,87.8,85.6,87.6z"/>
<circle cx="55.6" cy="23.1" r="7.5"/>
<path d="M75.3,51.6c-1.8-4.4-5.6-12.6-7.6-17.3c-1.4-3.1-5.3-4.7-8.4-3.3l-0.8,0.4c-3.1,1.4-4.6,5.3-3.2,8.4l2,4.5l-12.1,1.4v0.7
	c-0.4-0.7-1.2-1.1-2-1.1c-1.3,0-2.3,1-2.3,2.3s1,2.3,2.3,2.3c0.9,0,1.6-0.5,2-1.1v0.7h14.3l2.5,5.8L48.8,60
	c-1.8,0.5-2.9,2.3-2.5,4.1l0,0l2.5,19.3l1.1-0.1c-0.9,0.7-1.5,1.9-1.5,3.1c0,2.2,1.8,4,4,4s4-1.8,4-4c0-1.7-1-3.1-2.4-3.7l1.1-0.1
	l-1.5-11.8l8.4,7.5l0.7-0.8c0,0.2,0,0.3,0,0.5c0,2,1.6,3.5,3.5,3.5c2,0,3.5-1.6,3.5-3.5c0-2-1.6-3.5-3.5-3.5c-0.4,0-0.7,0.1-1,0.2
	l0.7-0.8l-9.8-8.7l15.1-4.5C75.1,59.3,76.3,54,75.3,51.6z"/>
<path d="M41.7,49.7h-3c-0.6,0-1.1-0.5-1.1-1.1l0,0c0-0.6,0.5-1.1,1.1-1.1h3c0.6,0,1.1,0.5,1.1,1.1l0,0
	C42.8,49.2,42.3,49.7,41.7,49.7z"/>
<polygon points="56.1,50.1 13.4,50.1 13.4,53.6 21.9,53.6 13.6,91.3 18.2,91.3 25.2,57.1 35.4,91.3 40,91.3 28.3,53.6 56.1,53.6 "/>
<path d="M34.2,49.7c0,0-12.2,0-13.5,0s-3.4-1.1-2.6-3.6s5.9-18,6.1-18.5s1-1.2,1.2-1.3c0,0-1.8-10.7,0.3-17.5l0.6-0.1l6.2,34.7
	l-0.8,0.2c0,0-3-4.7-4.2-8.8s-1.7-6.2-1.9-7.5c0,0-0.5,0.4-0.6,0.9s-5.7,18.4-5.7,18.4s-0.4,2,1.4,2.1s13.6,0.5,13.6,0.5L34.2,49.7
	L34.2,49.7z"/>
</svg>
