<?xml version="1.0" encoding="UTF-8" standalone="no"?>
<svg width="60px" height="60px" viewBox="0 0 60 60" version="1.1" xmlns="http://www.w3.org/2000/svg" xmlns:xlink="http://www.w3.org/1999/xlink" xmlns:sketch="http://www.bohemiancoding.com/sketch/ns">
    <!-- Generator: Sketch 3.2.2 (9983) - http://www.bohemiancoding.com/sketch -->
    <title>Microphone</title>
    <desc>Created with Sketch.</desc>
    <defs></defs>
    <g id="stroked" stroke="none" stroke-width="1" fill="none" fill-rule="evenodd" sketch:type="MSPage">
        <g id="Tech" sketch:type="MSLayerGroup" transform="translate(-238.000000, -1569.000000)" stroke="#457ab1" stroke-width="2" stroke-linejoin="round">
            <g id="Microphone" transform="translate(253.000000, 1570.000000)" sketch:type="MSShapeGroup">
                <rect id="Rectangle-603" stroke-linecap="round" x="5" y="0" width="25" height="39" rx="16"></rect>
                <path d="M0.5,26.75 C0.5,36.1388407 8.11115925,43.75 17.5,43.75 C26.8888407,43.75 34.5,36.1388407 34.5,26.75" id="Oval-563" stroke-linecap="round"></path>
                <rect id="Rectangle-604" stroke-linecap="round" x="15" y="43" width="5" height="9"></rect>
                <g id="a" transform="translate(9.000000, 10.000000)">
                    <path d="M10,41 L16.5192022,47.5192022" id="Line" stroke-linecap="square"></path>
                    <path d="M0,41 L6.51920223,47.5192022" id="Line" stroke-linecap="square" transform="translate(3.500000, 44.500000) scale(-1, 1) translate(-3.500000, -44.500000) "></path>
                    <path d="M3,1 L14.0453606,1" id="Line" stroke-linecap="round"></path>
                    <path d="M3,7 L14.0453606,7" id="Line" stroke-linecap="round"></path>
                    <path d="M3,13 L14.0453606,13" id="Line" stroke-linecap="round"></path>
                    <path d="M3,19 L14.0453606,19" id="Line" stroke-linecap="round"></path>
                </g>
            </g>
        </g>
    </g>
</svg>